HIERARCHY
ROOT SimulationBone
{
	OFFSET 0.000000 0.000000 0.000000
	CHANNELS 6 Xposition Yposition Zposition Zrotation Yrotation Xrotation 
	JOINT Hips
	{
		OFFSET 0.000000 0.000000 0.000000
		CHANNELS 6 Xposition Yposition Zposition Zrotation Yrotation Xrotation 
		JOINT LeftUpLeg
		{
			OFFSET 0.103456 1.857840 10.548501
			CHANNELS 3 Zrotation Yrotation Xrotation
			JOINT LeftLeg
			{
				OFFSET 43.499992 -0.000038 -0.000006
				CHANNELS 3 Zrotation Yrotation Xrotation
				JOINT LeftFoot
				{
					OFFSET 42.372196 0.000031 0.000002
					CHANNELS 3 Zrotation Yrotation Xrotation
					JOINT LeftToe
					{
						OFFSET 17.299974 -0.000010 -0.000017
						CHANNELS 3 Zrotation Yrotation Xrotation
						End Site
						{
							OFFSET 0.000000 0.000000 0.000000
						}
					}
				}
			}
		}
		JOINT RightUpLeg
		{
			OFFSET 0.103462 1.857831 -10.548510
			CHANNELS 3 Zrotation Yrotation Xrotation
			JOINT RightLeg
			{
				OFFSET 43.500046 -0.000015 0.000008
				CHANNELS 3 Zrotation Yrotation Xrotation
				JOINT RightFoot
				{
					OFFSET 42.372265 -0.000015 0.000004
					CHANNELS 3 Zrotation Yrotation Xrotation
					JOINT RightToe
					{
						OFFSET 17.299995 -0.000004 0.000013
						CHANNELS 3 Zrotation Yrotation Xrotation
						End Site
						{
							OFFSET 0.000000 0.000000 0.000000
						}
					}
				}
			}
		}
		JOINT Spine
		{
			OFFSET 6.901966 -2.603716 -0.000002
			CHANNELS 3 Zrotation Yrotation Xrotation
			JOINT Spine1
			{
				OFFSET 12.588102 -0.000001 0.000005
				CHANNELS 3 Zrotation Yrotation Xrotation
				JOINT Spine2
				{
					OFFSET 12.343201 -0.000023 -0.000011
					CHANNELS 3 Zrotation Yrotation Xrotation
					JOINT Neck
					{
						OFFSET 25.832901 0.000011 0.000007
						CHANNELS 3 Zrotation Yrotation Xrotation
						JOINT Head
						{
							OFFSET 11.766600 -0.000002 0.000002
							CHANNELS 3 Zrotation Yrotation Xrotation
							End Site
							{
								OFFSET 0.000000 0.000000 0.000000
							}
						}
					}
					JOINT LeftShoulder
					{
						OFFSET 19.745907 -1.480350 6.000119
						CHANNELS 3 Zrotation Yrotation Xrotation
						JOINT LeftArm
						{
							OFFSET 11.284122 -0.000013 -0.000023
							CHANNELS 3 Zrotation Yrotation Xrotation
							JOINT LeftForeArm
							{
								OFFSET 33.000057 0.000005 0.000025
								CHANNELS 3 Zrotation Yrotation Xrotation
								JOINT LeftHand
								{
									OFFSET 25.199997 0.000020 0.000019
									CHANNELS 3 Zrotation Yrotation Xrotation
									End Site
									{
										OFFSET 0.000000 0.000000 0.000000
									}
								}
							}
						}
					}
					JOINT RightShoulder
					{
						OFFSET 19.746096 -1.480352 -6.000062
						CHANNELS 3 Zrotation Yrotation Xrotation
						JOINT RightArm
						{
							OFFSET 11.284150 0.000007 -0.000012
							CHANNELS 3 Zrotation Yrotation Xrotation
							JOINT RightForeArm
							{
								OFFSET 33.000092 0.000019 0.000012
								CHANNELS 3 Zrotation Yrotation Xrotation
								JOINT RightHand
								{
									OFFSET 25.199797 0.000118 0.000427
									CHANNELS 3 Zrotation Yrotation Xrotation
									End Site
									{
										OFFSET 0.000000 0.000000 0.000000
									}
								}
							}
						}
					}
				}
			}
		}
	}
}
MOTION
Frames: 9
Frame Time: 0.016667
-319.015516 0.000000 164.835007 0.000000 83.701445 0.000000 -3.801646 91.692886 -1.181351 83.834593 -2.898965 175.542496 163.767268 -7.627501 149.245684 -20.937938 6.339469 -14.379804 72.154138 3.158630 -22.518671 21.454560 0.003107 0.000016 157.602476 12.794812 -153.991627 -33.405754 0.223680 12.523874 80.571540 -8.412853 1.087883 21.454551 -0.003089 0.000001 6.036029 -0.598054 0.575025 2.053334 -1.205822 1.139750 1.735223 -1.199059 1.147007 8.818847 -3.109326 -10.150535 -11.740806 18.967237 -16.864456 -172.845914 -76.082490 -8.730988 22.964620 49.681108 41.724464 -45.217849 -15.015766 1.632914 6.139832 -8.914344 0.904594 -165.740043 80.035603 16.006049 -21.112916 -57.493095 -25.680467 -30.022263 11.203552 -0.985084 11.025775 4.656574 4.461676 
-318.992183 0.000000 164.914554 0.000000 81.535371 0.000000 -3.880911 91.707373 -1.291066 83.640915 -3.210645 175.883890 164.259445 -7.353545 148.885454 -20.783093 6.411289 -14.417663 72.147948 2.816593 -23.675522 21.454560 0.003108 0.000016 157.407333 12.679633 -153.143108 -33.687320 0.215809 15.039034 80.484147 -10.217446 0.777856 21.454553 -0.003087 -0.000001 6.005136 -0.664480 0.449067 1.992395 -1.336277 0.887060 1.674243 -1.331038 0.895112 8.756516 -3.103254 -10.057491 -11.456126 18.766154 -16.649352 -173.949901 -76.182959 -7.603090 23.196450 49.350019 41.817696 -45.232350 -15.178210 1.644087 6.384128 -8.462450 0.541987 -163.837995 79.984963 17.939061 -19.418839 -57.186523 -27.029086 -31.147007 11.654683 -1.036345 10.705138 5.207614 5.409175 
-318.883713 0.000000 165.005463 0.000000 79.405453 0.000000 -3.954803 91.667923 -1.407360 83.452935 -3.522541 176.345946 164.757058 -7.078995 148.460554 -20.630598 6.511376 -14.331743 72.331511 2.429834 -24.811069 21.454560 0.003112 0.000018 157.344828 12.581994 -151.971448 -33.792647 0.015880 16.740222 80.439581 -11.396457 0.723889 21.454555 -0.003087 -0.000002 5.961990 -0.729181 0.321845 1.907252 -1.463336 0.632085 1.589065 -1.459634 0.640912 8.836042 -3.066008 -9.965972 -11.233063 18.573438 -16.446342 -175.325929 -76.225193 -6.197018 23.432098 49.076397 41.887295 -45.194124 -15.293837 1.650535 6.477164 -8.159508 0.125951 -162.183113 79.843300 19.622059 -17.561204 -56.856337 -28.431158 -32.304342 12.149272 -1.091830 10.290067 5.880857 6.382718 
-318.691803 0.000000 165.110607 0.000000 77.309955 0.000000 -4.025175 91.585893 -1.529755 83.280168 -3.769191 176.837483 165.320655 -6.857878 147.937827 -20.401298 6.638654 -14.169954 72.705549 2.042534 -25.924486 21.454560 0.003114 0.000019 157.398785 12.406220 -150.850608 -33.658613 -0.264075 17.491253 80.602140 -11.718834 1.536867 21.454553 -0.003090 -0.000001 5.909479 -0.772862 0.199748 1.803640 -1.548586 0.387902 1.485429 -1.546348 0.397246 8.997254 -3.165177 -9.840881 -11.035589 18.423196 -16.245799 -176.489058 -76.173213 -5.007466 23.596321 48.903096 41.835901 -45.137178 -15.268285 1.647151 6.555319 -8.205366 -0.230897 -161.090907 79.775205 20.732950 -15.547614 -56.540279 -29.926336 -33.481650 12.677647 -1.150754 9.916606 6.666117 7.160473 
-318.423139 0.000000 165.230612 0.000000 75.247944 0.000000 -4.083646 91.454536 -1.635828 83.134239 -3.964300 177.301956 165.929146 -6.740920 147.256104 -20.179236 6.761354 -13.981045 73.196869 1.678239 -27.014051 21.454560 0.003112 0.000019 157.538395 12.053109 -150.102968 -33.172250 -0.591575 17.552217 81.177651 -11.534641 2.490997 21.454551 -0.003093 0.000000 5.855575 -0.803861 0.092359 1.697232 -1.608894 0.173408 1.379006 -1.607940 0.183116 9.092159 -3.254338 -9.698183 -10.789478 18.191510 -15.992502 -176.941911 -76.210815 -4.544906 23.672757 49.025328 41.603965 -45.056868 -15.126058 1.635416 6.489905 -8.317307 -0.363257 -160.361078 79.753347 21.475122 -13.504743 -56.263726 -31.319575 -34.646318 13.199516 -1.210500 9.610758 7.327762 7.519581 
-318.087266 0.000000 165.364443 0.000000 73.219261 0.000000 -4.121639 91.275076 -1.703881 83.018072 -4.128631 177.709054 166.540215 -6.753070 146.400130 -20.048805 6.863279 -13.830176 73.698526 1.361723 -28.072369 21.454556 0.003107 0.000017 157.718211 11.470294 -149.912353 -32.308748 -0.966042 17.212709 82.252770 -11.223144 2.807982 21.454550 -0.003091 0.000000 5.807472 -0.832735 0.007706 1.602225 -1.665452 0.004376 1.283986 -1.665517 0.014430 8.998426 -3.194127 -9.562648 -10.432579 17.799861 -15.660149 -176.451825 -76.480772 -5.049032 23.661923 49.575287 41.176977 -44.957171 -14.946582 1.620706 6.192364 -8.185052 -0.195867 -159.691940 79.714283 22.155907 -11.568975 -56.057846 -32.418742 -35.756917 13.675169 -1.266814 9.363696 7.664723 7.326926 
-317.692659 0.000000 165.510331 0.000000 71.223988 0.000000 -4.150110 91.098717 -1.739824 82.907854 -4.229236 178.100102 167.102777 -6.823599 145.571821 -19.931151 7.018001 -13.844489 74.042385 1.151051 -29.073522 21.454553 0.003103 0.000014 157.838582 10.785199 -149.958373 -31.434118 -1.452183 16.489251 83.414709 -10.714661 2.822155 21.454551 -0.003089 0.000000 5.763957 -0.851449 -0.055657 1.516144 -1.702089 -0.121970 1.197897 -1.702920 -0.111688 8.780624 -3.190267 -9.446911 -9.979057 17.513408 -15.373726 -175.803974 -76.746282 -5.714096 23.594413 50.282055 40.699840 -44.914968 -14.910161 1.617013 6.013522 -7.871987 -0.069082 -158.720972 79.655627 23.144043 -9.826983 -55.948789 -33.248117 -36.758721 14.097293 -1.317759 9.160139 7.841554 6.805046 
-317.245603 0.000000 165.666480 0.000000 69.261749 0.000000 -4.180515 90.972392 -1.750499 82.783938 -4.234210 178.512494 167.571866 -6.892898 144.965394 -19.755954 7.282932 -14.135299 74.084422 1.104271 -29.958564 21.454554 0.003102 0.000013 157.808853 10.130926 -150.000498 -30.910253 -2.038270 15.454035 84.257331 -9.959834 2.993407 21.454550 -0.003090 -0.000000 5.722294 -0.851126 -0.102012 1.433489 -1.700939 -0.214065 1.115245 -1.702325 -0.203785 8.542897 -3.448984 -9.350144 -9.484965 17.577268 -15.241810 -175.845980 -76.752336 -5.671762 23.510847 50.849818 40.282625 -44.993653 -15.123194 1.633083 6.257942 -7.563431 -0.289307 -157.306941 79.573326 24.583345 -8.341545 -55.931322 -33.873073 -37.584125 14.460449 -1.361269 8.991749 8.075661 6.204332 
-316.750395 0.000000 165.831286 0.000000 67.331748 0.000000 -4.198464 90.875961 -1.721954 82.660043 -4.177390 178.895397 167.946319 -7.022193 144.519275 -19.648164 7.560052 -14.691904 73.844562 1.263893 -30.560219 21.454558 0.003108 0.000015 157.656489 9.490492 -150.626912 -30.715708 -2.323460 14.665540 84.870598 -9.381693 3.174432 21.454550 -0.003093 -0.000000 5.682133 -0.838043 -0.137470 1.353632 -1.674455 -0.284248 1.035400 -1.676264 -0.274125 8.364958 -3.831311 -9.236087 -9.120277 17.804594 -15.180644 -176.260996 -76.522320 -5.245114 23.412764 51.284433 39.697315 -45.129928 -15.295532 1.648741 6.622688 -7.544875 -0.632756 -156.247063 79.413504 25.664081 -7.128217 -55.890125 -34.306325 -38.127443 14.734316 -1.392617 8.877295 8.422191 5.537523 
